# xmcd CD database file
#
# Track frame offsets:
#	182
#	12995
#	26315
#	42345
#	59497
#	75312
#	90235
#	102840
#	131285
#	142795
#	156857
#	170620
#
# Disc length: 2453 seconds
#
# Revision: 2
# Processed by: cddbd v1.4PL0 Copyright (c) Steve Scherf et al.
# Submitted via: CDex 1.40PlusFr
#
DISCID=8309930c
DTITLE=Steeve Waring - L' Ogresse
DYEAR=1998
DGENRE=Chanson
TTITLE0=L' Ogresse
TTITLE1=Piano à Pouce
TTITLE2=Arthur
TTITLE3=Le Mont Pothu
TTITLE4=Le Rap de la Scie
TTITLE5=Poisson Manqué
TTITLE6=Clafoutis
TTITLE7=Bert et Moi
TTITLE8=Bulle
TTITLE9=Cailloux Bambous
TTITLE10=Libellule
TTITLE11=Orphéon
EXTD=Le Chant du Monde 1989 YEAR: 1998 ID3G: 102
EXTT0=Neue Deutsche Welle vor dem Überschlag
EXTT1=submitted by bledde@algonet.se
EXTT2=Concept and trak selected by E-Z Man\n\n© 1993 React Music Ltd.
EXTT3=1998 Repertoire Records  - by DUP
EXTT4=1998 Repertoire Records   - by DUP
EXTT5=By Stang 04/99
EXTT6=Legião Urbana, brazilian rock group\nThis is a bootleg mastered by Animal\nhttp://www.animalweb.net/legiao/\n
EXTT7=Recorded Live At The Edenhal, Amsterdam Nov. 29th 1990
EXTT8=1969\nMercury/Polygram 5 14 992-2
EXTT9=by Mihály
EXTT10=Was written of Henry.
EXTT11=Les plus meilleures niaiserie 1997-98
PLAYORDER=
